<?xml version="1.0" encoding="UTF-8"?>
<svg id="Ebene_1" xmlns="http://www.w3.org/2000/svg" version="1.1" viewBox="0 0 1024 1024">
  <!-- Generator: Adobe Illustrator 30.0.0, SVG Export Plug-In . SVG Version: 2.1.1 Build 123)  -->
  <defs>
    <style>
      .st0 {
        fill: #2640e8;
      }

      .st1 {
        fill: #fff;
      }
    </style>
  </defs>
  <g>
    <g>
      <path class="st0" d="M864.6315508,370.2118994c-55.5700684-14.2299805-117.9100342-16.1799927-172.9599609-30.039978-17.6900635-4.460022-32.5600586-14.7700195-42.130127-30.3600464-1.8999023-3.0899658-3.7598877-6.2199707-5.5898438-9.3800049-26.25-45.2599487-46.4400635-97.2099609-74.0500488-141.6599731-20.7099609-27.1500244-61.4599609-33.5700073-90.0700684-15.1599731-14.4699707,9.3099976-20.5799561,21.6299438-28.4799805,36.1099854-22.75,41.6799927-43.0100098,90.2799683-67.6300049,130.0899658-.9799805,1.5599976-2.1700439,3.4200439-3.4300537,5.2600098-1.6899414,2.4500122-3.5198975,4.8699951-5.1699219,6.5800171-9.8900146,10.1500244-24.0400391,16.5499878-37.7299805,19.6099854-26.3699951,5.8900146-53.9200439,9.9100342-81.5,13.9000244-25.0400391,3.6199951-50.1000977,7.2199707-74.3300781,12.1900024-63.4099121,12.9699707-77.7999268,80.5100098-29.3798828,120.8099976,32.1899414,37.4400024,76.539917,69.6799927,108.0699463,106.789978,14.7000732,17.2999878,18.789917,33.4100342,16.2700195,55.8599854-5.75,51.4199829-23.5200195,107.6300049-27.4700928,158.3800049-2.6499023,34.0800171,16.960083,65.5300293,51.3300781,72.5599976,25.1999512,5.1500244,39.3699951-3.7000122,60.7299805-14.539978,48.4599609-24.6300049,94.8599854-55.5300293,145.7600098-74.3600464,11.6699219-.6599731,23.0300293-.5799561,33.9699707,3.9800415l156.9899902,82.9299927c49.4599609,14.3200073,90.4400635-20.75,86.2199707-71.7299805-4.2199707-50.8400269-22.7199707-106.3500366-27.3498535-157.1900024-1.7700195-19.4199829,1.0799561-36.4000244,13.4199219-51.6500244.0800781-.0899658.1500244-.1900024.2299805-.2799683,33.2099609-40.5599976,83.0600586-78.9800415,119.3500977-117.9200439,34.1098633-36.5899658,23.1599121-94.6099854-25.0700684-110.7799683ZM726.7615557,416.4618994c48.789917,53.5200195,28.5299072,140.1300049-38.4200439,166.3300171-90.0899658,35.2799683-175.8499756-58.5599976-131.5300293-144.710022,33.3100586-64.7600098,121.1401367-75.1699829,169.9500732-21.6199951ZM379.2615557,381.8218848c82.3099365-3.2399902,135.8099365,85.0599976,94.9200439,156.8699951-37.3901367,65.6799927-132.4400635,69.3500366-175.5700684,7.3600464-46.8200684-67.2800293-1.0600586-161.0100098,80.6500244-164.2300415Z"/>
      <path d="M396.6715899,474.3619239c-30.6600342,41.1900024,26.4599609,87.4599609,60.1699219,52.9099731,39.1999512-40.1500244-27.1599121-97.2700195-60.1699219-52.9099731ZM444.7016192,496.0419165c-16.0200195,2.3999634-18.1201172-20.6400146-3.5600586-22.0599976,13.8000488-1.3600464,17.3699951,20.0099487,3.5600586,22.0599976Z"/>
      <path d="M674.4616289,409.4219214c-46.8701172,7.9099731-38.9300537,87.1999512,16.5098877,78.4599609,49.3399658-7.789978,40.0100098-88.0100098-16.5098877-78.4599609ZM703.7116289,443.9318701c-16.1201172,9.6900024-24.2200928-16.8599854-9.4901123-20.0599976,12.5300293-2.7399902,20.7800293,13.2600098,9.4901123,20.0599976Z"/>
    </g>
    <path class="st1" d="M474.1815996,538.6918799c-37.3901367,65.6799927-132.4400635,69.3500366-175.5700684,7.3600464-46.8200684-67.2800293-1.0600586-161.0100098,80.6500244-164.2300415,82.3099365-3.2399902,135.8099365,85.0599976,94.9200439,156.8699951Z"/>
    <path class="st1" d="M688.3415117,582.7919165c-90.0899658,35.2799683-175.8499756-58.5599976-131.5300293-144.710022,33.3100586-64.7600098,121.1401367-75.1699829,169.9500732-21.6199951,48.789917,53.5200195,28.5299072,140.1300049-38.4200439,166.3300171Z"/>
  </g>
  <g>
    <path d="M396.6715899,474.3619239c-30.6600342,41.1900024,26.4599609,87.4599609,60.1699219,52.9099731,39.1999512-40.1500244-27.1599121-97.2700195-60.1699219-52.9099731ZM444.7016192,496.0419165c-16.0200195,2.3999634-18.1201172-20.6400146-3.5600586-22.0599976,13.8000488-1.3600464,17.3699951,20.0099487,3.5600586,22.0599976Z"/>
    <path d="M674.4616289,409.4219214c-46.8701172,7.9099731-38.9300537,87.1999512,16.5098877,78.4599609,49.3399658-7.789978,40.0100098-88.0100098-16.5098877-78.4599609ZM703.7116289,443.9318701c-16.1201172,9.6900024-24.2200928-16.8599854-9.4901123-20.0599976,12.5300293-2.7399902,20.7800293,13.2600098,9.4901123,20.0599976Z"/>
  </g>
</svg>